<svg width="45" height="45" viewBox="0 0 45 45" fill="none" xmlns="http://www.w3.org/2000/svg">
<g clip-path="url(#clip0_1257_12929)">
<path d="M45 0H0V45H45V0Z" fill="url(#paint0_linear_1257_12929)"/>
<path d="M32.495 14.5787C32.495 13.0502 33.555 11.7658 34.9779 11.4186H25.0278C24.8311 11.4186 24.6331 11.222 24.6331 11.024C24.6331 10.826 24.8311 10.6293 25.0278 10.6293H35.7475V9.21292C35.7475 8.39716 35.0862 7.73584 34.2704 7.73584H34.1041H24.2384H22.698C21.9548 7.73584 21.2394 8.01568 20.6929 8.51992L11.2153 17.2728C10.6226 17.8655 10.2292 18.6536 10.2292 19.5089V24.6688C11.3473 24.6688 12.2568 25.5783 12.2568 26.6963C12.2568 27.8144 11.3473 28.7238 10.2292 28.7238V31.0906C10.2292 32.7221 11.5519 34.0448 13.1834 34.0448H32.792C34.4235 34.0448 35.7462 32.7221 35.7462 31.0906V17.8312C33.9536 17.8312 32.495 16.3726 32.495 14.5787Z" fill="white"/>
<path d="M31.8548 24.4283H14.7872C14.4611 24.4283 14.1958 24.1643 14.1958 23.837C14.1958 23.5096 14.4598 23.2456 14.7872 23.2456H31.8548C32.1808 23.2456 32.4461 23.5096 32.4461 23.837C32.4461 24.1643 32.1808 24.4283 31.8548 24.4283Z" fill="url(#paint1_linear_1257_12929)"/>
<path d="M31.8548 29.9764H14.7872C14.4611 29.9764 14.1958 29.7124 14.1958 29.3851C14.1958 29.059 14.4598 28.7937 14.7872 28.7937H31.8548C32.1808 28.7937 32.4461 29.0577 32.4461 29.3851C32.4461 29.7111 32.1808 29.9764 31.8548 29.9764Z" fill="url(#paint2_linear_1257_12929)"/>
<path d="M31.8548 19.109H14.7872C14.4611 19.109 14.1958 18.845 14.1958 18.5176C14.1958 18.1916 14.4598 17.9263 14.7872 17.9263H31.8548C32.1808 17.9263 32.4461 18.1903 32.4461 18.5176C32.4461 18.845 32.1808 19.109 31.8548 19.109Z" fill="url(#paint3_linear_1257_12929)"/>
<path d="M11.9862 11.3698C12.8534 11.3698 13.5385 10.6847 13.5385 9.81746C13.5385 8.95022 12.8534 8.26514 11.9862 8.26514C11.1189 8.26514 10.4338 8.95022 10.4338 9.81746C10.4338 10.6847 11.1189 11.3698 11.9862 11.3698Z" fill="white"/>
<path d="M9.38293 15.0681C9.60997 15.0681 9.79345 14.8846 9.79345 14.6576C9.79345 14.4306 9.60997 14.2471 9.38293 14.2471C9.15589 14.2471 8.97241 14.4306 8.97241 14.6576C8.97241 14.8833 9.15589 15.0681 9.38293 15.0681Z" fill="white"/>
<path d="M20.0673 6.82104C20.2943 6.82104 20.4778 6.63756 20.4778 6.41052C20.4778 6.18348 20.2943 6 20.0673 6C19.8402 6 19.6567 6.1848 19.6567 6.41052C19.6567 6.63756 19.8402 6.82104 20.0673 6.82104Z" fill="white"/>
<path d="M38.5895 10.2278C38.8165 10.2278 39 10.0443 39 9.81726C39 9.59022 38.8165 9.40674 38.5895 9.40674C38.3624 9.40674 38.179 9.59022 38.179 9.81726C38.1776 10.0443 38.3624 10.2278 38.5895 10.2278Z" fill="white"/>
<path d="M6.41052 8.40234C6.18348 8.40234 6 8.58582 6 8.81286C6 9.0399 6.18348 9.22338 6.41052 9.22338C6.63756 9.22338 6.82104 9.03858 6.82104 8.81286C6.82236 8.58582 6.63756 8.40234 6.41052 8.40234Z" fill="white"/>
<path d="M38.5895 33.2224C38.3624 33.2224 38.179 33.4059 38.179 33.6329C38.179 33.86 38.3624 34.0435 38.5895 34.0435C38.8165 34.0435 39 33.86 39 33.6329C39 33.4059 38.8165 33.2224 38.5895 33.2224Z" fill="white"/>
<path d="M34.0883 37.5981C33.8612 37.5981 33.6777 37.7816 33.6777 38.0087C33.6777 38.2357 33.8612 38.4192 34.0883 38.4192C34.3153 38.4192 34.4988 38.2357 34.4988 38.0087C34.4988 37.7816 34.314 37.5981 34.0883 37.5981Z" fill="white"/>
<path d="M27.8035 35.3738C27.3006 35.3738 26.9363 35.7394 26.9363 36.241C26.9363 36.7439 27.3468 37.1083 27.8035 37.1083C28.2602 37.1083 28.6708 36.7426 28.6708 36.241C28.6708 35.7381 28.3051 35.3738 27.8035 35.3738Z" fill="white"/>
<path d="M38.133 14.5786C38.133 14.9046 37.869 15.17 37.5416 15.17H36.3391V16.3725C36.3391 16.6985 36.0751 16.9638 35.7477 16.9638C35.4204 16.9638 35.1564 16.6998 35.1564 16.3725V15.17H33.9538C33.6278 15.17 33.3625 14.906 33.3625 14.5786C33.3625 14.2526 33.6265 13.9872 33.9538 13.9872H35.1564V12.7847C35.1564 12.4587 35.4204 12.1934 35.7477 12.1934C36.0751 12.1934 36.3391 12.4574 36.3391 12.7847V13.9872H37.5416C37.8676 13.9872 38.133 14.2526 38.133 14.5786ZM11.3475 26.3266H10.5978V25.5768C10.5978 25.3736 10.4328 25.2086 10.2295 25.2086C10.0262 25.2086 9.8612 25.3736 9.8612 25.5768V26.3266H9.11144C8.90816 26.3266 8.74316 26.4916 8.74316 26.6949C8.74316 26.8982 8.90816 27.0632 9.11144 27.0632H9.8612V27.8129C9.8612 28.0162 10.0262 28.1812 10.2295 28.1812C10.4328 28.1812 10.5978 28.0162 10.5978 27.8129V27.0632H11.3475C11.5508 27.0632 11.7158 26.8982 11.7158 26.6949C11.7158 26.4916 11.5508 26.3266 11.3475 26.3266Z" fill="white"/>
<path d="M21.5284 31.9829C20.0962 31.9829 18.9307 30.8173 18.9307 29.3851C18.9307 27.9529 20.0962 26.7874 21.5284 26.7874C22.9606 26.7874 24.1262 27.9529 24.1262 29.3851C24.1262 30.8173 22.9606 31.9829 21.5284 31.9829ZM21.5284 27.9701C20.7483 27.9701 20.1134 28.605 20.1134 29.3851C20.1134 30.1652 20.7483 30.8002 21.5284 30.8002C22.3085 30.8002 22.9435 30.1652 22.9435 29.3851C22.9435 28.605 22.3085 27.9701 21.5284 27.9701Z" fill="url(#paint4_linear_1257_12929)"/>
<path d="M21.5286 31.3915C22.6367 31.3915 23.535 30.4932 23.535 29.3851C23.535 28.277 22.6367 27.3787 21.5286 27.3787C20.4205 27.3787 19.5222 28.277 19.5222 29.3851C19.5222 30.4932 20.4205 31.3915 21.5286 31.3915Z" fill="white"/>
<path d="M18.911 21.1152C17.4788 21.1152 16.3132 19.9496 16.3132 18.5174C16.3132 17.0852 17.4788 15.9197 18.911 15.9197C20.3432 15.9197 21.5088 17.0852 21.5088 18.5174C21.5088 19.9496 20.3432 21.1152 18.911 21.1152ZM18.911 17.1024C18.1309 17.1024 17.496 17.7373 17.496 18.5174C17.496 19.2976 18.1309 19.9325 18.911 19.9325C19.6911 19.9325 20.326 19.2976 20.326 18.5174C20.326 17.7373 19.6911 17.1024 18.911 17.1024Z" fill="url(#paint5_linear_1257_12929)"/>
<path d="M18.9112 20.5238C20.0193 20.5238 20.9176 19.6255 20.9176 18.5174C20.9176 17.4093 20.0193 16.511 18.9112 16.511C17.8031 16.511 16.9048 17.4093 16.9048 18.5174C16.9048 19.6255 17.8031 20.5238 18.9112 20.5238Z" fill="white"/>
<path d="M27.8036 26.4338C26.3714 26.4338 25.2058 25.2682 25.2058 23.836C25.2058 22.4038 26.3714 21.2383 27.8036 21.2383C29.2358 21.2383 30.4013 22.4038 30.4013 23.836C30.4013 25.2682 29.2358 26.4338 27.8036 26.4338ZM27.8036 22.4223C27.0234 22.4223 26.3885 23.0572 26.3885 23.8374C26.3885 24.6175 27.0234 25.2524 27.8036 25.2524C28.5837 25.2524 29.2186 24.6175 29.2186 23.8374C29.2186 23.0572 28.5837 22.4223 27.8036 22.4223Z" fill="url(#paint6_linear_1257_12929)"/>
<path d="M28.7001 25.631C29.6912 25.1355 30.0929 23.9303 29.5974 22.9392C29.1018 21.9481 27.8967 21.5464 26.9056 22.0419C25.9145 22.5375 25.5128 23.7426 26.0083 24.7337C26.5039 25.7248 27.709 26.1265 28.7001 25.631Z" fill="white"/>
</g>
<defs>
<linearGradient id="paint0_linear_1257_12929" x1="0" y1="22.5" x2="45" y2="22.5" gradientUnits="userSpaceOnUse">
<stop stop-color="#5D63DC"/>
<stop offset="1" stop-color="#4767EC"/>
</linearGradient>
<linearGradient id="paint1_linear_1257_12929" x1="14.1965" y1="23.8368" x2="32.4459" y2="23.8368" gradientUnits="userSpaceOnUse">
<stop stop-color="#5D63DC"/>
<stop offset="1" stop-color="#4767EC"/>
</linearGradient>
<linearGradient id="paint2_linear_1257_12929" x1="14.1965" y1="29.3854" x2="32.4459" y2="29.3854" gradientUnits="userSpaceOnUse">
<stop stop-color="#5D63DC"/>
<stop offset="1" stop-color="#4767EC"/>
</linearGradient>
<linearGradient id="paint3_linear_1257_12929" x1="14.1965" y1="18.5181" x2="32.4459" y2="18.5181" gradientUnits="userSpaceOnUse">
<stop stop-color="#5D63DC"/>
<stop offset="1" stop-color="#4767EC"/>
</linearGradient>
<linearGradient id="paint4_linear_1257_12929" x1="18.9314" y1="29.3854" x2="24.1258" y2="29.3854" gradientUnits="userSpaceOnUse">
<stop stop-color="#5D63DC"/>
<stop offset="1" stop-color="#4767EC"/>
</linearGradient>
<linearGradient id="paint5_linear_1257_12929" x1="16.3135" y1="18.5179" x2="21.5079" y2="18.5179" gradientUnits="userSpaceOnUse">
<stop stop-color="#5D63DC"/>
<stop offset="1" stop-color="#4767EC"/>
</linearGradient>
<linearGradient id="paint6_linear_1257_12929" x1="25.206" y1="23.8372" x2="30.4004" y2="23.8372" gradientUnits="userSpaceOnUse">
<stop stop-color="#5D63DC"/>
<stop offset="1" stop-color="#4767EC"/>
</linearGradient>
<clipPath id="clip0_1257_12929">
<rect width="45" height="45" fill="white"/>
</clipPath>
</defs>
</svg>
