<?xml version="1.0" encoding="utf-8"?>
<!-- Generator: Adobe Illustrator 24.3.0, SVG Export Plug-In . SVG Version: 6.00 Build 0)  -->
<svg version="1.1" id="Layer_1" xmlns="http://www.w3.org/2000/svg" xmlns:xlink="http://www.w3.org/1999/xlink" x="0px" y="0px"
	 viewBox="0 0 250 250" style="enable-background:new 0 0 250 250;" xml:space="preserve">
<style type="text/css">
	.st0{fill:url(#SVGID_1_);}
	.st1{display:none;}
	.st2{display:inline;}
	.st3{fill:#00274E;}
	.st4{display:inline;fill:#FEC00F;}
	.st5{display:inline;fill:#1E3862;}
	.st6{display:inline;fill:#FDA504;}
	.st7{display:inline;fill:#00274E;}
	.st8{display:inline;fill:url(#SVGID_2_);}
	.st9{display:inline;fill:url(#SVGID_3_);}
	.st10{display:inline;fill:url(#SVGID_4_);}
	.st11{display:inline;fill:url(#SVGID_5_);}
	.st12{display:inline;fill:url(#SVGID_6_);}
	.st13{display:inline;fill:url(#SVGID_7_);}
	.st14{display:inline;fill:url(#SVGID_8_);}
	.st15{display:inline;fill:url(#SVGID_9_);}
	.st16{display:inline;fill:url(#SVGID_10_);}
	.st17{display:inline;fill:url(#SVGID_11_);}
	.st18{display:inline;fill:url(#SVGID_12_);}
	.st19{display:inline;fill:url(#SVGID_13_);}
	.st20{display:inline;fill:url(#SVGID_14_);}
	.st21{fill:#FFFFFF;}
	.st22{fill:url(#SVGID_15_);}
	.st23{fill:url(#SVGID_16_);}
	.st24{fill:url(#SVGID_17_);}
	.st25{fill:url(#SVGID_18_);}
	.st26{fill:url(#SVGID_19_);}
	.st27{fill:url(#SVGID_20_);}
</style>
<linearGradient id="SVGID_1_" gradientUnits="userSpaceOnUse" x1="0" y1="125" x2="250" y2="125">
	<stop  offset="0" style="stop-color:#547CFF"/>
	<stop  offset="0" style="stop-color:#5D63DC"/>
	<stop  offset="1" style="stop-color:#4767EC"/>
</linearGradient>
<rect class="st0" width="250" height="250"/>
<g class="st1">
	<g class="st2">
		<g>
			<g>
				<path class="st3" d="M236.22,157.54c0,15.44-2.92,28.58-8.75,39.42c-5.83,10.83-13.76,19.1-23.79,24.79
					c-10.03,5.69-21.29,8.54-33.78,8.54c-12.59,0-23.88-2.86-33.88-8.58c-10-5.72-17.91-13.99-23.72-24.82s-8.71-23.95-8.71-39.35
					c0-15.44,2.9-28.58,8.71-39.42c5.81-10.83,13.71-19.1,23.72-24.79c10-5.69,21.3-8.54,33.88-8.54c12.49,0,23.75,2.85,33.78,8.54
					c10.03,5.69,17.96,13.96,23.79,24.79C233.31,128.95,236.22,142.09,236.22,157.54z M205.87,157.54c0-10-1.49-18.44-4.46-25.31
					c-2.97-6.87-7.16-12.08-12.55-15.63c-5.39-3.55-11.71-5.32-18.95-5.32c-7.24,0-13.55,1.78-18.95,5.32
					c-5.39,3.55-9.58,8.76-12.55,15.63c-2.97,6.87-4.46,15.31-4.46,25.31c0,10,1.49,18.44,4.46,25.31
					c2.97,6.87,7.16,12.08,12.55,15.63c5.39,3.55,11.71,5.33,18.95,5.33c7.24,0,13.55-1.77,18.95-5.33
					c5.39-3.55,9.58-8.76,12.55-15.63C204.38,175.98,205.87,167.54,205.87,157.54z M159.54,179.11h25.45l12.79,16.46l12.58,14.66
					l23.72,29.73h-27.94l-16.32-20.05l-8.37-11.89L159.54,179.11z"/>
				<path class="st3" d="M326.05,183.12v-60.99h29.46v106.21h-28.28v-19.29h-1.11c-2.4,6.22-6.37,11.23-11.93,15.01
					c-5.56,3.78-12.32,5.67-20.29,5.67c-7.1,0-13.35-1.61-18.74-4.84s-9.6-7.81-12.62-13.76c-3.02-5.95-4.55-13.07-4.6-21.37v-67.63
					h29.46v62.37c0.04,6.27,1.73,11.23,5.05,14.87s7.77,5.46,13.35,5.46c3.55,0,6.87-0.82,9.96-2.46c3.09-1.64,5.59-4.07,7.5-7.3
					C325.16,191.86,326.09,187.87,326.05,183.12z"/>
				<path class="st3" d="M393.81,108.44c-4.38,0-8.12-1.45-11.24-4.36c-3.11-2.9-4.67-6.41-4.67-10.51c0-4.1,1.57-7.62,4.7-10.55
					c3.13-2.93,6.87-4.39,11.2-4.39c4.38,0,8.12,1.45,11.24,4.36c3.11,2.9,4.67,6.41,4.67,10.51c0,4.1-1.56,7.62-4.67,10.55
					C401.94,106.98,398.19,108.44,393.81,108.44z M379.02,228.35V122.13h29.46v106.21H379.02z"/>
				<path class="st3" d="M479.97,230.42c-10.88,0-20.23-2.32-28.04-6.95c-7.81-4.63-13.81-11.08-17.98-19.33
					c-4.17-8.25-6.26-17.75-6.26-28.49c0-10.88,2.11-20.43,6.33-28.66c4.22-8.23,10.22-14.66,18.01-19.29
					c7.79-4.63,17.06-6.95,27.8-6.95c9.27,0,17.38,1.68,24.34,5.05c6.96,3.37,12.47,8.09,16.53,14.18
					c4.06,6.08,6.29,13.23,6.71,21.44h-27.8c-0.79-5.3-2.85-9.58-6.19-12.83c-3.34-3.25-7.71-4.88-13.1-4.88
					c-4.56,0-8.54,1.23-11.93,3.7c-3.39,2.47-6.03,6.05-7.92,10.75c-1.89,4.7-2.83,10.4-2.83,17.08c0,6.78,0.93,12.54,2.8,17.29
					s4.51,8.37,7.92,10.86c3.41,2.49,7.4,3.73,11.96,3.73c3.36,0,6.4-0.69,9.09-2.07c2.7-1.38,4.93-3.4,6.71-6.05
					c1.77-2.65,2.94-5.84,3.49-9.58h27.8c-0.46,8.11-2.66,15.25-6.6,21.4s-9.37,10.96-16.29,14.42
					C497.61,228.69,489.42,230.42,479.97,230.42z"/>
				<path class="st3" d="M546.36,228.35V86.73h29.46v141.62H546.36z M573.05,197.78l0.07-35.34h4.29l34.02-40.31h33.81l-45.71,53.38
					h-6.98L573.05,197.78z M612.74,228.35l-31.26-46.26l19.64-20.81l46.12,67.08H612.74z"/>
				<path class="st3" d="M708.03,230.42c-10.93,0-20.32-2.22-28.18-6.67c-7.86-4.45-13.91-10.76-18.15-18.95
					c-4.24-8.18-6.36-17.88-6.36-29.08c0-10.93,2.12-20.51,6.36-28.77c4.24-8.25,10.22-14.68,17.94-19.29
					c7.72-4.61,16.79-6.92,27.21-6.92c7.01,0,13.54,1.12,19.6,3.35c6.06,2.24,11.36,5.59,15.91,10.06
					c4.54,4.47,8.08,10.08,10.61,16.84c2.54,6.75,3.8,14.65,3.8,23.68v8.09h-89.69v-18.25h61.96c0-4.24-0.92-8-2.77-11.27
					s-4.39-5.84-7.64-7.71s-7.02-2.8-11.31-2.8c-4.47,0-8.42,1.03-11.86,3.08c-3.44,2.05-6.12,4.8-8.06,8.23
					c-1.94,3.43-2.93,7.25-2.97,11.44v17.36c0,5.26,0.98,9.8,2.94,13.62c1.96,3.83,4.74,6.78,8.33,8.85
					c3.6,2.08,7.86,3.11,12.79,3.11c3.27,0,6.27-0.46,8.99-1.38c2.72-0.92,5.05-2.3,6.98-4.15c1.94-1.84,3.41-4.1,4.43-6.78
					l27.25,1.8c-1.38,6.55-4.21,12.25-8.47,17.11c-4.26,4.86-9.75,8.64-16.46,11.34C724.52,229.07,716.79,230.42,708.03,230.42z"/>
				<path class="st3" d="M776,228.35V122.13h28.56v18.53h1.11c1.94-6.59,5.19-11.58,9.75-14.97c4.56-3.39,9.82-5.08,15.77-5.08
					c1.47,0,3.07,0.09,4.77,0.28c1.71,0.18,3.2,0.44,4.49,0.76v26.14c-1.38-0.42-3.3-0.78-5.74-1.11s-4.68-0.48-6.71-0.48
					c-4.33,0-8.19,0.93-11.58,2.8s-6.06,4.46-8.02,7.78c-1.96,3.32-2.94,7.15-2.94,11.48v60.09H776z"/>
			</g>
		</g>
	</g>
	<polygon class="st4" points="-111.24,139.13 -134.46,139.13 -106.21,84.2 -91.06,84.2 	"/>
	<polygon class="st5" points="-88.02,139.13 -111.24,139.13 -91.06,84.2 -75.91,84.2 	"/>
	<polygon class="st4" points="-64.8,139.13 -88.02,139.13 -75.91,84.2 -60.76,84.2 	"/>
	<polygon class="st5" points="-41.58,139.13 -64.8,139.13 -60.76,84.2 -45.61,84.2 	"/>
	<polygon class="st4" points="-18.36,139.13 -41.58,139.13 -45.61,84.2 -30.46,84.2 	"/>
	<polygon class="st4" points="28.09,139.13 4.87,139.13 -15.31,84.2 -0.16,84.2 	"/>
	<polygon class="st5" points="4.87,139.13 -18.36,139.13 -30.46,84.2 -15.31,84.2 	"/>
	<path class="st6" d="M-111.24,139.13c0,6.41-5.2,11.61-11.61,11.61c-6.41,0-11.61-5.2-11.61-11.61H-111.24z"/>
	<path class="st7" d="M-88.02,139.13c0,6.41-5.2,11.61-11.61,11.61s-11.61-5.2-11.61-11.61H-88.02z"/>
	<path class="st6" d="M-64.8,139.13c0,6.41-5.2,11.61-11.61,11.61c-6.41,0-11.61-5.2-11.61-11.61H-64.8z"/>
	<path class="st7" d="M-41.58,139.13c0,6.41-5.2,11.61-11.61,11.61s-11.61-5.2-11.61-11.61H-41.58z"/>
	<path class="st6" d="M-18.36,139.13c0,6.41-5.2,11.61-11.61,11.61s-11.61-5.2-11.61-11.61H-18.36z"/>
	<path class="st7" d="M4.87,139.13c0,6.41-5.2,11.61-11.61,11.61s-11.61-5.2-11.61-11.61H4.87z"/>
	<path class="st6" d="M28.09,139.13c0,6.41-5.2,11.61-11.61,11.61s-11.61-5.2-11.61-11.61H28.09z"/>
	<path class="st6" d="M-20.17,230.82c0,7.72,6.25,13.97,13.97,13.97c7.72,0,13.97-6.25,13.97-13.97S1.51,216.85-6.2,216.85
		C-13.92,216.85-20.17,223.1-20.17,230.82z"/>
	<linearGradient id="SVGID_2_" gradientUnits="userSpaceOnUse" x1="-150.3463" y1="172.2293" x2="54.5339" y2="172.2293">
		<stop  offset="0" style="stop-color:#002093"/>
		<stop  offset="1" style="stop-color:#0C4CA7"/>
	</linearGradient>
	<polygon class="st8" points="26.1,175.28 28.12,166.88 -132.82,166.88 -130.22,177.58 25.54,177.58 	"/>
	<linearGradient id="SVGID_3_" gradientUnits="userSpaceOnUse" x1="-139.4529" y1="198.9725" x2="45.7732" y2="198.9725">
		<stop  offset="0" style="stop-color:#002093"/>
		<stop  offset="1" style="stop-color:#0C4CA7"/>
	</linearGradient>
	<polygon class="st9" points="21.63,193.63 -126.31,193.63 -123.71,204.32 19.03,204.32 	"/>
	<linearGradient id="SVGID_4_" gradientUnits="userSpaceOnUse" x1="-165.448" y1="228.5913" x2="124.6181" y2="228.5913">
		<stop  offset="0" style="stop-color:#002093"/>
		<stop  offset="1" style="stop-color:#0C4CA7"/>
	</linearGradient>
	<path class="st10" d="M-27.68,223.24h-45.75c0.84,2.37,1.3,4.92,1.3,7.57c0,1.06-0.08,2.1-0.22,3.12h43.59
		c-0.14-1.02-0.22-2.06-0.22-3.12C-28.98,228.16-28.52,225.61-27.68,223.24z"/>
	<linearGradient id="SVGID_5_" gradientUnits="userSpaceOnUse" x1="-165.448" y1="132.2741" x2="124.6182" y2="132.2741">
		<stop  offset="0" style="stop-color:#002093"/>
		<stop  offset="1" style="stop-color:#0C4CA7"/>
	</linearGradient>
	<path class="st11" d="M-141.88,166.88l-12.37-50.83c-0.08-0.32-0.15-0.65-0.21-0.97c-0.89-4.85,0.32-9.8,3.39-13.71
		c2.66-3.39,6.41-5.6,10.57-6.32c0.96-0.16,1.94-0.25,2.94-0.25h192.1h0l-6.5,26.99l-10.26,42.58l-0.6,2.51h6.69L54.53,135
		l-14.26,42.58h-5.68l-3.91,16.05h5.43l9.65-31.88l-12.89,42.58h-4.8l-1.41,5.81c-0.24,0.97-0.55,1.89-0.93,2.78
		c-0.19,0.44-0.4,0.88-0.63,1.3c-0.45,0.84-0.97,1.64-1.55,2.39c-0.29,0.37-0.59,0.73-0.91,1.08c-1.27,1.39-2.75,2.56-4.4,3.46
		c-1.03,0.56-2.12,1.03-3.26,1.37c0,0-0.01,0-0.01,0c1.01,2.58,1.58,5.38,1.58,8.31c0,0.8-0.04,1.59-0.12,2.36
		c10.02-2.37,18.09-10.15,20.62-20.52l7.98-32.8l0,0l0.14-0.59l23.16-95.16h-0.24l6.96-28.89c1.87-7.75,8.73-13.16,16.7-13.16h32.85
		V31.37H91.77c-12.93,0-24.07,8.78-27.1,21.35l-7.56,31.4h-194.67c-8.61,0-16.6,3.88-21.92,10.65c-5.32,6.77-7.2,15.45-5.17,23.81
		l14.3,58.75v-10.45H-141.88z"/>
	<linearGradient id="SVGID_6_" gradientUnits="userSpaceOnUse" x1="-165.448" y1="205.6853" x2="124.6181" y2="205.6853">
		<stop  offset="0" style="stop-color:#002093"/>
		<stop  offset="1" style="stop-color:#0C4CA7"/>
	</linearGradient>
	<path class="st12" d="M-116.34,223.16c-2.36-0.23-4.6-0.93-6.6-2.03c-1.03-0.56-2-1.23-2.89-1.99c-0.18-0.15-0.35-0.31-0.52-0.47
		c-2.4-2.23-4.18-5.16-5-8.54l-1.41-5.81h-6.68v-10.69h4.08l-3.91-16.05h-11.01l8.54,35.08c2.82,11.61,12.6,19.97,24.28,21.14
		c-0.13-0.98-0.2-1.97-0.2-2.98C-117.67,228.13-117.2,225.55-116.34,223.16z"/>
	<linearGradient id="SVGID_7_" gradientUnits="userSpaceOnUse" x1="-165.448" y1="219.4008" x2="124.6181" y2="219.4008">
		<stop  offset="0" style="stop-color:#002093"/>
		<stop  offset="1" style="stop-color:#0C4CA7"/>
	</linearGradient>
	<path class="st13" d="M18.26,221.13c1.65-0.9,3.13-2.07,4.4-3.46C21.39,219.06,19.91,220.23,18.26,221.13z"/>
	<linearGradient id="SVGID_8_" gradientUnits="userSpaceOnUse" x1="-165.448" y1="215.3987" x2="124.6181" y2="215.3987">
		<stop  offset="0" style="stop-color:#002093"/>
		<stop  offset="1" style="stop-color:#0C4CA7"/>
	</linearGradient>
	<path class="st14" d="M25.12,214.21c-0.45,0.84-0.97,1.64-1.55,2.39C24.15,215.85,24.66,215.05,25.12,214.21z"/>
	<linearGradient id="SVGID_9_" gradientUnits="userSpaceOnUse" x1="-165.448" y1="217.1316" x2="124.6181" y2="217.1316">
		<stop  offset="0" style="stop-color:#002093"/>
		<stop  offset="1" style="stop-color:#0C4CA7"/>
	</linearGradient>
	<path class="st15" d="M23.57,216.59c-0.29,0.37-0.59,0.73-0.91,1.08C22.98,217.32,23.28,216.96,23.57,216.59z"/>
	<linearGradient id="SVGID_10_" gradientUnits="userSpaceOnUse" x1="-165.448" y1="213.557" x2="124.6181" y2="213.557">
		<stop  offset="0" style="stop-color:#002093"/>
		<stop  offset="1" style="stop-color:#0C4CA7"/>
	</linearGradient>
	<path class="st16" d="M25.74,212.91c-0.19,0.44-0.4,0.88-0.63,1.3C25.34,213.78,25.55,213.35,25.74,212.91z"/>
	<linearGradient id="SVGID_11_" gradientUnits="userSpaceOnUse" x1="-165.448" y1="172.2293" x2="124.6181" y2="172.2293">
		<stop  offset="0" style="stop-color:#002093"/>
		<stop  offset="1" style="stop-color:#0C4CA7"/>
	</linearGradient>
	<polygon class="st17" points="-141.88,166.88 -150.35,166.88 -150.35,177.33 -150.29,177.58 -139.28,177.58 	"/>
	<linearGradient id="SVGID_12_" gradientUnits="userSpaceOnUse" x1="-165.448" y1="156.2881" x2="124.6181" y2="156.2881">
		<stop  offset="0" style="stop-color:#002093"/>
		<stop  offset="1" style="stop-color:#0C4CA7"/>
	</linearGradient>
	<polygon class="st18" points="34.59,177.58 40.28,177.58 54.53,135 43.86,166.88 37.17,166.88 34.65,177.36 	"/>
	<linearGradient id="SVGID_13_" gradientUnits="userSpaceOnUse" x1="-165.448" y1="183.0314" x2="124.6181" y2="183.0314">
		<stop  offset="0" style="stop-color:#002093"/>
		<stop  offset="1" style="stop-color:#0C4CA7"/>
	</linearGradient>
	<polygon class="st19" points="32.88,204.32 45.77,161.74 36.12,193.63 30.69,193.63 28.09,204.32 	"/>
	<linearGradient id="SVGID_14_" gradientUnits="userSpaceOnUse" x1="-165.448" y1="198.9725" x2="124.6181" y2="198.9725">
		<stop  offset="0" style="stop-color:#002093"/>
		<stop  offset="1" style="stop-color:#0C4CA7"/>
	</linearGradient>
	<polygon class="st20" points="-139.45,193.63 -139.45,204.32 -132.77,204.32 -135.37,193.63 	"/>
	<circle class="st6" cx="-94.9" cy="230.82" r="13.97"/>
	<path class="st6" d="M-189.98,244.87h55.06c2.92,0,5.29-2.37,5.29-5.29l0,0c0-2.92-2.37-5.29-5.29-5.29h-55.06
		c-2.92,0-5.29,2.37-5.29,5.29l0,0C-195.27,242.5-192.9,244.87-189.98,244.87z"/>
	<path class="st6" d="M-228.19,244.87h20.17c2.92,0,5.29-2.37,5.29-5.29l0,0c0-2.92-2.37-5.29-5.29-5.29h-20.17
		c-2.92,0-5.29,2.37-5.29,5.29l0,0C-233.48,242.5-231.11,244.87-228.19,244.87z"/>
	<path class="st6" d="M-248.12,244.87h1.9c2.92,0,5.29-2.37,5.29-5.29l0,0c0-2.92-2.37-5.29-5.29-5.29h-1.9
		c-2.92,0-5.29,2.37-5.29,5.29l0,0C-253.42,242.5-251.05,244.87-248.12,244.87z"/>
	<path class="st6" d="M-169.11,227.49h13.41c2.92,0,5.29-2.37,5.29-5.29l0,0c0-2.92-2.37-5.29-5.29-5.29h-13.41
		c-2.92,0-5.29,2.37-5.29,5.29l0,0C-174.4,225.13-172.03,227.49-169.11,227.49z"/>
	<path class="st6" d="M-227.26,227.49h40.07c2.92,0,5.29-2.37,5.29-5.29l0,0c0-2.92-2.37-5.29-5.29-5.29h-40.07
		c-2.92,0-5.29,2.37-5.29,5.29l0,0C-232.55,225.13-230.18,227.49-227.26,227.49z"/>
</g>
<path class="st21" d="M200.72,67.19c0-11.58,8.03-21.31,18.81-23.94h-75.38c-1.49,0-2.99-1.49-2.99-2.99s1.5-2.99,2.99-2.99h81.21
	V26.54c0-6.18-5.01-11.19-11.19-11.19h-1.26h-74.74h-11.67c-5.63,0-11.05,2.12-15.19,5.94L39.51,87.6
	c-4.49,4.49-7.47,10.46-7.47,16.94v39.09c0,0,0,0,0,0c8.47,0,15.36,6.89,15.36,15.36c0,8.47-6.89,15.36-15.36,15.36c0,0,0,0,0,0
	v17.93c0,12.36,10.02,22.38,22.38,22.38h148.55c12.36,0,22.38-10.02,22.38-22.38V91.83l0,0C211.77,91.83,200.72,80.78,200.72,67.19z
	"/>
<g>
	<linearGradient id="SVGID_15_" gradientUnits="userSpaceOnUse" x1="62.0955" y1="137.3287" x2="200.3482" y2="137.3287">
		<stop  offset="0" style="stop-color:#547CFF"/>
		<stop  offset="0" style="stop-color:#5D63DC"/>
		<stop  offset="1" style="stop-color:#4767EC"/>
	</linearGradient>
	<path class="st22" d="M195.87,141.81H66.57c-2.47,0-4.48-2-4.48-4.48s2-4.48,4.48-4.48h129.3c2.47,0,4.48,2,4.48,4.48
		S198.34,141.81,195.87,141.81z"/>
</g>
<g>
	<linearGradient id="SVGID_16_" gradientUnits="userSpaceOnUse" x1="62.0955" y1="179.3624" x2="200.3482" y2="179.3624">
		<stop  offset="0" style="stop-color:#547CFF"/>
		<stop  offset="0" style="stop-color:#5D63DC"/>
		<stop  offset="1" style="stop-color:#4767EC"/>
	</linearGradient>
	<path class="st23" d="M195.87,183.84H66.57c-2.47,0-4.48-2-4.48-4.48c0-2.47,2-4.48,4.48-4.48h129.3c2.47,0,4.48,2,4.48,4.48
		C200.35,181.83,198.34,183.84,195.87,183.84z"/>
</g>
<g>
	<linearGradient id="SVGID_17_" gradientUnits="userSpaceOnUse" x1="62.0955" y1="97.0332" x2="200.3482" y2="97.0332">
		<stop  offset="0" style="stop-color:#547CFF"/>
		<stop  offset="0" style="stop-color:#5D63DC"/>
		<stop  offset="1" style="stop-color:#4767EC"/>
	</linearGradient>
	<path class="st24" d="M195.87,101.51H66.57c-2.47,0-4.48-2-4.48-4.48c0-2.47,2-4.48,4.48-4.48h129.3c2.47,0,4.48,2,4.48,4.48
		C200.35,99.51,198.34,101.51,195.87,101.51z"/>
</g>
<path class="st21" d="M45.35,42.88c6.57,0,11.76-5.19,11.76-11.76c0-6.57-5.19-11.76-11.76-11.76c-6.57,0-11.76,5.19-11.76,11.76
	C33.59,37.69,38.78,42.88,45.35,42.88z"/>
<path class="st21" d="M25.63,70.9c1.72,0,3.11-1.39,3.11-3.11c0-1.72-1.39-3.11-3.11-3.11c-1.72,0-3.11,1.39-3.11,3.11
	C22.52,69.5,23.91,70.9,25.63,70.9z"/>
<path class="st21" d="M106.57,8.42c1.72,0,3.11-1.39,3.11-3.11c0-1.72-1.39-3.11-3.11-3.11c-1.72,0-3.11,1.4-3.11,3.11
	C103.46,7.03,104.85,8.42,106.57,8.42z"/>
<path class="st21" d="M246.89,34.23c1.72,0,3.11-1.39,3.11-3.11c0-1.72-1.39-3.11-3.11-3.11c-1.72,0-3.11,1.39-3.11,3.11
	C243.77,32.84,245.17,34.23,246.89,34.23z"/>
<path class="st21" d="M3.11,20.4C1.39,20.4,0,21.79,0,23.51c0,1.72,1.39,3.11,3.11,3.11c1.72,0,3.11-1.4,3.11-3.11
	C6.23,21.79,4.83,20.4,3.11,20.4z"/>
<path class="st21" d="M246.89,208.43c-1.72,0-3.11,1.39-3.11,3.11c0,1.72,1.39,3.11,3.11,3.11c1.72,0,3.11-1.39,3.11-3.11
	C250,209.82,248.61,208.43,246.89,208.43z"/>
<path class="st21" d="M212.79,241.58c-1.72,0-3.11,1.39-3.11,3.11c0,1.72,1.39,3.11,3.11,3.11s3.11-1.39,3.11-3.11
	C215.9,242.97,214.5,241.58,212.79,241.58z"/>
<path class="st21" d="M165.18,224.73c-3.81,0-6.57,2.77-6.57,6.57c0,3.81,3.11,6.57,6.57,6.57c3.46,0,6.57-2.77,6.57-6.57
	C171.75,227.49,168.98,224.73,165.18,224.73z"/>
<path class="st21" d="M243.43,67.19c0,2.47-2,4.48-4.48,4.48h-9.11v9.11c0,2.47-2,4.48-4.48,4.48s-4.48-2-4.48-4.48v-9.11h-9.11
	c-2.47,0-4.48-2-4.48-4.48c0-2.47,2-4.48,4.48-4.48h9.11V53.6c0-2.47,2-4.48,4.48-4.48s4.48,2,4.48,4.48v9.11h9.11
	C241.42,62.71,243.43,64.72,243.43,67.19z M40.51,156.19h-5.68v-5.68c0-1.54-1.25-2.79-2.79-2.79c-1.54,0-2.79,1.25-2.79,2.79v5.68
	h-5.68c-1.54,0-2.79,1.25-2.79,2.79s1.25,2.79,2.79,2.79h5.68v5.68c0,1.54,1.25,2.79,2.79,2.79c1.54,0,2.79-1.25,2.79-2.79v-5.68
	h5.68c1.54,0,2.79-1.25,2.79-2.79S42.05,156.19,40.51,156.19z"/>
<linearGradient id="SVGID_18_" gradientUnits="userSpaceOnUse" x1="97.9657" y1="179.3625" x2="137.3168" y2="179.3625">
	<stop  offset="0" style="stop-color:#547CFF"/>
	<stop  offset="0" style="stop-color:#5D63DC"/>
	<stop  offset="1" style="stop-color:#4767EC"/>
</linearGradient>
<path class="st25" d="M117.64,199.04c-10.85,0-19.68-8.83-19.68-19.68c0-10.85,8.83-19.68,19.68-19.68s19.68,8.83,19.68,19.68
	C137.32,190.21,128.49,199.04,117.64,199.04z M117.64,168.64c-5.91,0-10.72,4.81-10.72,10.72s4.81,10.72,10.72,10.72
	c5.91,0,10.72-4.81,10.72-10.72S123.55,168.64,117.64,168.64z"/>
<circle class="st21" cx="117.64" cy="179.36" r="15.2"/>
<linearGradient id="SVGID_19_" gradientUnits="userSpaceOnUse" x1="78.132" y1="97.0332" x2="117.4839" y2="97.0332">
	<stop  offset="0" style="stop-color:#547CFF"/>
	<stop  offset="0" style="stop-color:#5D63DC"/>
	<stop  offset="1" style="stop-color:#4767EC"/>
</linearGradient>
<path class="st26" d="M97.81,116.71c-10.85,0-19.68-8.83-19.68-19.68s8.83-19.68,19.68-19.68c10.85,0,19.68,8.83,19.68,19.68
	S108.66,116.71,97.81,116.71z M97.81,86.31c-5.91,0-10.72,4.81-10.72,10.72c0,5.91,4.81,10.72,10.72,10.72
	c5.91,0,10.72-4.81,10.72-10.72C108.53,91.12,103.72,86.31,97.81,86.31z"/>
<circle class="st21" cx="97.81" cy="97.03" r="15.2"/>
<linearGradient id="SVGID_20_" gradientUnits="userSpaceOnUse" x1="145.5012" y1="137.3287" x2="184.8531" y2="137.3287">
	<stop  offset="0" style="stop-color:#547CFF"/>
	<stop  offset="0" style="stop-color:#5D63DC"/>
	<stop  offset="1" style="stop-color:#4767EC"/>
</linearGradient>
<path class="st27" d="M165.18,157c-10.85,0-19.68-8.83-19.68-19.68s8.83-19.68,19.68-19.68c10.85,0,19.68,8.83,19.68,19.68
	S176.03,157,165.18,157z M165.18,126.61c-5.91,0-10.72,4.81-10.72,10.72s4.81,10.72,10.72,10.72c5.91,0,10.72-4.81,10.72-10.72
	S171.09,126.61,165.18,126.61z"/>
<ellipse transform="matrix(0.8944 -0.4472 0.4472 0.8944 -43.977 88.3679)" class="st21" cx="165.18" cy="137.33" rx="15.2" ry="15.2"/>
</svg>
