<svg width="20" height="20" fill="none" xmlns="http://www.w3.org/2000/svg"><g clip-path="url(#a)"><path d="M16.058 6.375c0-.926.642-1.705 1.504-1.915h-6.03c-.12 0-.24-.12-.24-.24s.12-.238.24-.238h6.497v-.859c0-.494-.401-.895-.895-.895H10.12c-.45 0-.884.17-1.215.475L3.16 8.008c-.36.36-.598.837-.598 1.355v3.127a1.23 1.23 0 0 1 1.229 1.23 1.23 1.23 0 0 1-1.229 1.228v1.434c0 .99.802 1.79 1.79 1.79h11.885a1.79 1.79 0 0 0 1.79-1.79V8.346a1.973 1.973 0 0 1-1.97-1.97Z" fill="#A7AAAD"/><path d="M15.67 12.345H5.326a.358.358 0 1 1 0-.717H15.67a.358.358 0 1 1 0 .717ZM15.67 15.707H5.326a.358.358 0 1 1 0-.717H15.67a.358.358 0 1 1 0 .717ZM15.67 9.121H5.326a.358.358 0 1 1 0-.717H15.67a.358.358 0 1 1 0 .717Z" fill="#fff"/><path d="M3.628 4.43c.526 0 .94-.415.94-.94a.933.933 0 0 0-.94-.941.933.933 0 0 0-.94.94c0 .526.414.941.94.941ZM2.05 6.672a.249.249 0 1 0 0-.497.249.249 0 0 0 0 .497ZM8.526 1.673a.249.249 0 1 0 0-.497.249.249 0 0 0 0 .497ZM19.751 3.738a.249.249 0 1 0 0-.497.249.249 0 0 0 0 .497ZM.249 2.632a.249.249 0 1 0 0 .497.249.249 0 0 0 0-.497ZM19.751 17.674a.249.249 0 1 0 0 .497.249.249 0 0 0 0-.497ZM13.214 18.979a.509.509 0 0 0-.525.525.525.525 0 1 0 1.051 0 .509.509 0 0 0-.526-.526ZM19.474 6.375c0 .198-.16.359-.358.359h-.729v.728a.358.358 0 1 1-.717 0v-.728h-.728a.358.358 0 1 1 0-.717h.728v-.729a.358.358 0 1 1 .717 0v.729h.729c.198 0 .358.16.358.358Zm-16.233 7.12h-.455v-.454a.223.223 0 0 0-.446 0v.454h-.454a.223.223 0 0 0 0 .447h.454v.454a.223.223 0 0 0 .446 0v-.454h.455a.223.223 0 0 0 0-.447Z" fill="#A7AAAD"/><path d="M9.411 16.923a1.576 1.576 0 0 1-1.574-1.574c0-.868.706-1.575 1.574-1.575.868 0 1.575.707 1.575 1.575s-.707 1.574-1.575 1.574Zm0-2.432a.859.859 0 0 0 0 1.715.859.859 0 0 0 0-1.715Z" fill="#fff"/><path d="M9.411 16.565a1.216 1.216 0 1 0 0-2.432 1.216 1.216 0 0 0 0 2.432ZM7.825 10.337A1.576 1.576 0 0 1 6.25 8.762c0-.868.707-1.574 1.575-1.574s1.574.706 1.574 1.574c0 .868-.706 1.575-1.574 1.575Zm0-2.432a.859.859 0 0 0 0 1.715.859.859 0 0 0 0-1.715Z" fill="#fff"/><path d="M7.825 9.978a1.216 1.216 0 1 0 0-2.432 1.216 1.216 0 0 0 0 2.432ZM13.214 13.56a1.576 1.576 0 0 1-1.574-1.575c0-.867.706-1.574 1.574-1.574.868 0 1.575.707 1.575 1.575 0 .867-.707 1.574-1.575 1.574Zm0-2.431a.859.859 0 0 0 0 1.715.859.859 0 0 0 0-1.715Z" fill="#fff"/><path d="M13.214 13.203a1.216 1.216 0 1 0 0-2.432 1.216 1.216 0 0 0 0 2.431Z" fill="#fff"/></g><defs><clipPath id="a"><path fill="#fff" d="M0 0h20v20H0z"/></clipPath></defs></svg>